:SAMPLES-PER-SECOND 30
:FULLY-SPECIFIED
:DEGREES
1
root  -105.117 20.5407 -1.28611 131.984 83.9715 146.418
RightUpLeg  -68.9729 2.49962 1.68337
RightLeg  110.781 16.2308 -10.9696
RightFoot  -29.0705 -0.0733037 -0.497389
RightToes  5.82075e-010 -1.59028e-015 9.93923e-017
Spine  60.0665 -4.21442 1.19998
Spine1  5.84015 -3.26213 -1.34477
HEad  -25.6945 -1.26983 6.76118
LeftShoulder1  9.93923e-017 0 1.22299e-017
LeftArm  -5.29916 -54.1491 -73.1522
LeftForeArm  -130.104 -51.4142 165.89
LeftHand  0.516459 5.09285 10.6815
RightShoulder  1.98785e-016 -4.96962e-017 1.55301e-017
RightArm  -3.8592 41.1016 67.8058
RightForeArm  -95.0205 45.3427 -155.813
RightHand  4.53551 -16.8521 -30.2133
LeftUpLeg  -50.186 -0.841031 15.003
LeftLeg  131.659 8.02267 -24.0894
LeftFoot  24.0038 4.87646 -14.153
LeftToes  1.8463e-010 2.29954e-012 -3.51709e-011
2
root  -104.323 20.4572 -1.37667 117.217 84.1975 132.68
RightUpLeg  -66.4397 3.48758 1.24876
RightLeg  112.342 16.8468 -11.4062
RightFoot  -31.6649 -0.00383517 0.00856926
RightToes  5.82075e-010 -1.59028e-015 9.93923e-017
Spine  59.6193 -4.07374 1.58557
Spine1  6.69674 -2.84355 -2.56207
HEad  -24.7478 -1.26403 6.10392
LeftShoulder1  9.93923e-017 0 1.22299e-017
LeftArm  -5.55324 -53.1105 -73.2093
LeftForeArm  -130.488 -51.2113 166.092
LeftHand  0.53587 5.16493 10.5559
RightShoulder  1.98785e-016 -4.96962e-017 1.55301e-017
RightArm  -2.87315 40.6884 68.6816
RightForeArm  -93.6264 45.7735 -155.169
RightHand  4.46012 -16.6978 -30.0569
LeftUpLeg  -52.5775 -0.0390594 12.5366
LeftLeg  132.438 8.95098 -24.3516
LeftFoot  14.8051 3.43159 -13.4938
LeftToes  1.8463e-010 2.29954e-012 -3.51709e-011
3
root  -102.908 20.3157 -1.43153 99.1511 83.35 116.491
RightUpLeg  -61.5762 4.4974 0.45572
RightLeg  114.984 18.1807 -12.4689
RightFoot  -35.8974 0.298358 1.48678
RightToes  5.82075e-010 -1.59028e-015 9.93923e-017
Spine  59.0136 -3.67782 1.69557
Spine1  7.87173 -2.23443 -4.63603
HEad  -23.4056 -1.07368 5.43617
LeftShoulder1  9.93923e-017 0 1.22299e-017
LeftArm  -5.66623 -51.4876 -73.3577
LeftForeArm  -130.77 -50.8772 166.393
LeftHand  0.548007 5.22003 10.6083
RightShoulder  1.98785e-016 -4.96962e-017 1.55301e-017
RightArm  -1.59748 39.8499 69.7924
RightForeArm  -92.8562 46.1308 -154.649
RightHand  4.33205 -16.5546 -29.3404
LeftUpLeg  -57.2407 1.32983 7.90765
LeftLeg  132.763 8.36674 -23.6025
LeftFoot  1.58122 1.39773 -10.2929
LeftToes  1.8463e-010 2.29954e-012 -3.51709e-011
4
root  -101.433 20.1009 -1.39569 91.2628 81.4127 110.904
RightUpLeg  -56.0495 4.78516 -0.890526
RightLeg  118.203 19.6445 -13.1639
RightFoot  -39.332 0.940061 4.03387
RightToes  5.82075e-010 -1.59028e-015 9.93923e-017
Spine  58.8223 -3.10221 1.06007
Spine1  8.75693 -1.83524 -6.61673
HEad  -22.3803 -0.919801 5.30035
LeftShoulder1  9.93923e-017 0 1.22299e-017
LeftArm  -5.61923 -50.1939 -73.4396
LeftForeArm  -131.148 -50.6126 166.64
LeftHand  0.579904 5.357 10.6468
RightShoulder  1.98785e-016 -4.96962e-017 1.55301e-017
RightArm  -1.09075 38.9663 70.2642
RightForeArm  -92.5711 46.3154 -154.384
RightHand  4.15449 -16.2832 -28.5696
LeftUpLeg  -62.9555 1.39304 2.38525
LeftLeg  131.231 5.04841 -21.5255
LeftFoot  -9.07456 0.259324 -7.46358
LeftToes  1.8463e-010 2.29954e-012 -3.51709e-011
5
root  -100.126 19.7288 -1.35913 89.7171 79.5316 111.703
RightUpLeg  -51.0191 4.57707 -2.4842
RightLeg  122.229 20.529 -12.4531
RightFoot  -41.317 1.75737 7.0051
RightToes  5.82075e-010 -1.59028e-015 9.93923e-017
Spine  59.0894 -2.58975 0.354138
Spine1  9.18001 -1.70038 -7.81629
HEad  -21.9307 -1.00028 5.36973
LeftShoulder1  9.93923e-017 0 1.22299e-017
LeftArm  -5.80461 -49.5867 -73.2152
LeftForeArm  -131.659 -50.4728 166.793
LeftHand  0.628928 5.5523 10.4634
RightShoulder  1.98785e-016 -4.96962e-017 1.55301e-017
RightArm  -1.23394 38.4127 70.0854
RightForeArm  -92.8209 46.3726 -154.325
RightHand  4.01348 -16.0994 -27.8098
LeftUpLeg  -68.1711 1.32241 -2.40967
LeftLeg  127.719 0.176448 -18.3898
LeftFoot  -15.5673 -0.155679 -5.65272
LeftToes  1.8463e-010 2.29954e-012 -3.51709e-011
6
root  -98.7633 19.1742 -1.41696 87.5345 78.4371 111.729
RightUpLeg  -45.5181 4.20359 -3.82092
RightLeg  126.939 20.6292 -10.5769
RightFoot  -43.8131 2.66007 9.6673
RightToes  5.82075e-010 -1.59028e-015 9.93923e-017
Spine  59.1281 -2.12673 0.266714
Spine1  9.45284 -1.5291 -8.39758
HEad  -22.0385 -1.1416 4.92903
LeftShoulder1  9.93923e-017 0 1.22299e-017
LeftArm  -6.38089 -49.3376 -72.6221
LeftForeArm  -131.799 -50.3293 166.92
LeftHand  0.641634 5.60139 10.395
RightShoulder  1.98785e-016 -4.96962e-017 1.55301e-017
RightArm  -1.51183 38.3806 69.8342
RightForeArm  -92.4808 46.5952 -154.003
RightHand  3.84833 -15.8154 -27.1273
LeftUpLeg  -72.4249 3.05033 -6.2975
LeftLeg  123.302 -4.55388 -14.4675
LeftFoot  -19.4651 -0.219911 -3.2036
LeftToes  1.8463e-010 2.29954e-012 -3.51709e-011
7
root  -97.4982 18.5112 -1.48823 84.0076 77.761 110.208
RightUpLeg  -39.9856 3.53814 -4.80516
RightLeg  131.374 20.5734 -8.89608
RightFoot  -46.479 3.50787 11.6673
RightToes  5.82075e-010 -1.59028e-015 9.93923e-017
Spine  58.8271 -1.53694 0.27316
Spine1  10.3391 -1.12126 -9.03055
HEad  -22.7023 -1.13088 3.86648
LeftShoulder1  9.93923e-017 0 1.22299e-017
LeftArm  -7.04543 -49.1334 -71.834
LeftForeArm  -131.414 -50.1024 167.073
LeftHand  0.595221 5.43109 10.7859
RightShoulder  1.98785e-016 -4.96962e-017 1.55301e-017
RightArm  -1.33742 38.8598 70.0527
RightForeArm  -92.1577 46.8652 -153.613
RightHand  3.72616 -15.6491 -26.4312
LeftUpLeg  -76.1572 3.91717 -9.14069
LeftLeg  118.389 -8.37567 -10.217
LeftFoot  -22.1011 -0.26557 -2.62766
LeftToes  1.8463e-010 2.29954e-012 -3.51709e-011
8
root  -96.4728 17.7626 -1.57273 80.6399 77.5233 108.633
RightUpLeg  -35.3817 2.34289 -5.51976
RightLeg  135.501 20.6552 -7.65232
RightFoot  -48.0704 4.11177 13.0117
RightToes  5.82075e-010 -1.59028e-015 9.93923e-017
Spine  58.5866 -1.11656 0.406801
Spine1  11.8389 -0.607673 -9.76396
HEad  -23.7769 -1.04876 2.79027
LeftShoulder1  9.93923e-017 0 1.22299e-017
LeftArm  -7.56623 -49.0402 -71.0144
LeftForeArm  -131.048 -49.8699 167.231
LeftHand  0.531813 5.20396 11.2944
RightShoulder  1.98785e-016 -4.96962e-017 1.55301e-017
RightArm  -0.982489 39.6495 70.6325
RightForeArm  -92.0221 47.0149 -153.397
RightHand  3.62359 -15.488 -25.9024
LeftUpLeg  -78.664 4.43463 -10.9261
LeftLeg  114.013 -10.355 -7.63377
LeftFoot  -24.6015 -0.375138 -3.08474
LeftToes  1.8463e-010 2.29954e-012 -3.51709e-011
9
root  -95.6617 16.9531 -1.69098 77.5325 77.9847 106.797
RightUpLeg  -32.2912 0.931492 -6.07113
RightLeg  139.73 20.3383 -6.20293
RightFoot  -48.2364 4.31406 13.5791
RightToes  5.82075e-010 -1.59028e-015 9.93923e-017
Spine  58.6659 -1.15357 0.999713
Spine1  13.2131 -0.110928 -10.4358
HEad  -24.8731 -1.08722 2.20963
LeftShoulder1  9.93923e-017 0 1.22299e-017
LeftArm  -8.1617 -49.1953 -70.1254
LeftForeArm  -131.124 -49.7292 167.348
LeftHand  0.508202 5.11264 11.376
RightShoulder  1.98785e-016 -4.96962e-017 1.55301e-017
RightArm  -0.700037 40.4091 71.2195
RightForeArm  -91.7377 47.0243 -153.364
RightHand  3.56364 -15.3729 -25.6642
LeftUpLeg  -79.5607 5.27582 -11.7079
LeftLeg  110.675 -11.2869 -6.21321
LeftFoot  -25.7433 -0.398892 -2.99898
LeftToes  1.8463e-010 2.29954e-012 -3.51709e-011
10
root  -94.8734 16.1101 -1.86542 72.8267 79.1661 102.491
RightUpLeg  -29.5971 -0.0136514 -6.66749
RightLeg  144.037 18.7338 -4.07043
RightFoot  -48.9813 4.3235 13.2992
RightToes  5.82075e-010 -1.59028e-015 9.93923e-017
Spine  58.7533 -1.51933 2.13473
Spine1  13.938 0.414302 -11.0611
HEad  -25.8264 -1.30048 1.94532
LeftShoulder1  9.93923e-017 0 1.22299e-017
LeftArm  -9.16787 -49.6318 -69.0646
LeftForeArm  -131.334 -49.7116 167.378
LeftHand  0.533008 5.19663 11.1317
RightShoulder  1.98785e-016 -4.96962e-017 1.55301e-017
RightArm  -0.490582 41.1141 71.5114
RightForeArm  -91.2241 47.0194 -153.334
RightHand  3.57021 -15.4106 -25.5955
LeftUpLeg  -79.9306 5.23401 -11.0352
LeftLeg  108.551 -12.522 -3.17615
LeftFoot  -23.0201 -0.328375 -3.03486
LeftToes  1.8463e-010 2.29954e-012 -3.51709e-011
11
root  -94.0385 15.2785 -2.10479 64.274 80.5651 93.6156
RightUpLeg  -25.8766 -0.176964 -7.78518
RightLeg  147.897 15.6302 -1.53178
RightFoot  -52.0434 4.23955 11.9508
RightToes  5.82075e-010 -1.59028e-015 9.93923e-017
Spine  58.6584 -1.81511 3.42023
Spine1  14.3502 1.00522 -11.6284
HEad  -26.9669 -1.60723 1.44661
LeftShoulder1  9.93923e-017 0 1.22299e-017
LeftArm  -10.5975 -50.4133 -67.8569
LeftForeArm  -131.078 -49.8168 167.276
LeftHand  0.547072 5.2561 11.1636
RightShoulder  1.98785e-016 -4.96962e-017 1.55301e-017
RightArm  -0.304744 42.1926 71.3792
RightForeArm  -90.6041 47.1238 -153.145
RightHand  3.6016 -15.5158 -25.5516
LeftUpLeg  -81.2923 3.33113 -8.81403
LeftLeg  108.261 -14.1612 1.25411
LeftFoot  -16.9406 -0.176507 -4.47793
LeftToes  1.8463e-010 2.29954e-012 -3.51709e-011
12
root  -93.1353 14.5852 -2.39794 51.1914 80.8428 80.6302
RightUpLeg  -19.7146 1.05705 -10.8058
RightLeg  150.737 11.4045 0.98991
RightFoot  -57.0863 3.73492 9.27165
RightToes  5.82075e-010 -1.59028e-015 9.93923e-017
Spine  59.3832 -1.33832 3.87299
Spine1  14.5872 1.4967 -11.8328
HEad  -28.6356 -1.83037 0.537433
LeftShoulder1  9.93923e-017 0 1.22299e-017
LeftArm  -12.0574 -51.5152 -66.6962
LeftForeArm  -130.293 -49.9535 167.109
LeftHand  0.489079 5.06357 11.7432
RightShoulder  1.98785e-016 -4.96962e-017 1.55301e-017
RightArm  -0.13161 43.8197 70.9852
RightForeArm  -90.0241 47.241 -152.94
RightHand  3.63148 -15.597 -25.5811
LeftUpLeg  -82.6992 2.31821 -7.04331
LeftLeg  110.56 -15.359 3.7053
LeftFoot  -12.3457 0.0141697 -5.35299
LeftToes  1.8463e-010 2.29954e-012 -3.51709e-011
